<?xml version="1.0" encoding="UTF-8"?>
<svg version="1.1" xmlns="http://www.w3.org/2000/svg" width="500" height="500">
<path d="M0 0 C165 0 330 0 500 0 C500 165 500 330 500 500 C335 500 170 500 0 500 C0 335 0 170 0 0 Z " fill="#FEFEFE" transform="translate(0,0)"/>
<path d="M0 0 C1.02176834 -0.00309174 2.04353668 -0.00618347 3.0962677 -0.0093689 C4.22078842 -0.00740509 5.34530914 -0.00544128 6.50390625 -0.00341797 C7.69525681 -0.00491852 8.88660736 -0.00641907 10.11405945 -0.00796509 C14.09820932 -0.01035576 18.0822689 -0.00402517 22.06640625 0.00439453 C23.44747919 0.00666955 24.82855219 0.0089073 26.20962524 0.0111084 C35.20381763 0.02705753 44.19785925 0.06286762 53.19195557 0.10656738 C56.49236543 0.1224835 59.79277447 0.13626415 63.09320068 0.14831543 C72.48064082 0.18305132 81.86770748 0.23266289 91.25485039 0.31651115 C95.4022551 0.35350106 99.54947479 0.38456085 103.69702148 0.39984131 C107.62982368 0.41488396 111.56201771 0.44922169 115.49454689 0.49757767 C116.93836076 0.51224859 118.38225894 0.52043321 119.82614708 0.52131271 C129.81261183 0.53326892 140.28771543 1.18369143 148.56640625 7.44189453 C154.68613475 14.02060266 156.46529802 20.41869307 156.3359375 29.25048828 C155.61926512 36.90538024 152.08794837 41.73162456 146.359375 46.62158203 C140.26719668 50.62768225 135.33270781 51.56649989 128.19360352 51.4699707 C127.33426712 51.47040878 126.47493073 51.47084686 125.58955383 51.47129822 C122.77040285 51.46922073 119.95185863 51.44593911 117.1328125 51.42236328 C115.16983871 51.41676362 113.20686071 51.41249527 111.24388123 51.40950012 C106.09323422 51.39808049 100.94284354 51.36863813 95.79229736 51.33538818 C90.53018663 51.30462511 85.26803423 51.29098147 80.00585938 51.27587891 C69.6925961 51.24376565 59.37952255 51.19260422 49.06640625 51.12939453 C49.45941422 51.74674469 49.85242218 52.36409485 50.25733948 53.00015259 C52.07010801 55.84785018 53.88271112 58.69565304 55.6953125 61.54345703 C56.62228943 62.99957397 56.62228943 62.99957397 57.56799316 64.48510742 C67.94203404 80.78473494 78.22941805 97.1375535 88.44482422 113.53710938 C89.48380176 115.19803432 90.52913668 116.8550095 91.58251953 118.50683594 C92.03224121 119.21372559 92.48196289 119.92061523 92.9453125 120.64892578 C93.33404541 121.25454346 93.72277832 121.86016113 94.12329102 122.48413086 C97.1837008 127.82301295 96.55919559 134.19480293 96.06640625 140.12939453 C94.03588353 147.603186 88.3647254 153.08443666 81.94140625 157.06689453 C75.48703868 159.39804309 67.06726505 159.41187915 60.75390625 156.69189453 C52.73322637 151.66862491 47.54797546 143.21836231 42.81640625 135.25439453 C41.6883332 133.39451392 40.55940868 131.53514951 39.4296875 129.67626953 C38.86846191 128.7475 38.30723633 127.81873047 37.72900391 126.86181641 C35.20346079 122.71117345 32.60726249 118.60652301 30.00390625 114.50439453 C29.01299746 112.93930517 28.02211201 111.37420102 27.03125 109.80908203 C26.29817627 108.65230957 26.29817627 108.65230957 25.55029297 107.47216797 C23.05157031 103.5271626 20.55934025 99.57805937 18.06640625 95.62939453 C17.06643686 94.04604186 16.06643687 92.46270852 15.06640625 90.87939453 C12.06640625 86.12939453 12.06640625 86.12939453 9.06640625 81.37939453 C8.57116455 80.59532227 8.07592285 79.81125 7.56567383 79.00341797 C6.56789467 77.42347911 5.57033529 75.84340144 4.57299805 74.26318359 C2.04082306 70.25173539 -0.49538162 66.24293323 -3.0390625 62.23876953 C-7.79766782 54.7413608 -12.5309153 47.23143981 -17.12109375 39.62939453 C-17.49580811 39.01225586 -17.87052246 38.39511719 -18.2565918 37.75927734 C-22.18926987 31.1939647 -22.71727799 25.68964251 -21.93359375 18.12939453 C-19.6448364 10.22480818 -14.85252467 5.36626796 -7.93359375 1.12939453 C-4.98179233 0.14546072 -3.07668317 0.00276177 0 0 Z " fill="#F0137A" transform="translate(321.93359375,268.87060546875)"/>
<path d="M0 0 C6.05435184 -0.08357574 12.10861365 -0.14099005 18.16338444 -0.18675327 C20.61560782 -0.2092348 23.06776889 -0.24029747 25.51976871 -0.28032017 C28.90315921 -0.33374504 32.28533951 -0.35544071 35.66909122 -0.36915684 C36.63541477 -0.39178089 37.60173832 -0.41440495 38.5973444 -0.43771458 C46.01005856 -0.41482695 52.54130908 1.58119238 58.17710209 6.59730434 C59.49330997 8.09178066 59.49330997 8.09178066 61.55580997 11.15428066 C62.15393497 12.02053066 62.75205997 12.88678066 63.36830997 13.77928066 C66.5556264 22.83796946 64.53784811 30.76135721 60.55580997 39.15428066 C58.85528529 42.22583484 56.98400305 45.15897219 55.05580997 48.09178066 C53.97879102 49.76352938 52.90197359 51.43540795 51.82534122 53.10740566 C51.27958439 53.94851894 50.73382755 54.78963223 50.17153263 55.65623379 C47.66468401 59.53203842 45.20421277 63.43670556 42.74330997 67.34178066 C42.01120304 68.50024502 42.01120304 68.50024502 41.26430607 69.68211269 C37.21318638 76.09584225 33.1958665 82.53043443 29.18080997 88.96678066 C23.78314381 97.61830543 18.33829393 106.2378386 12.8456049 114.82932949 C9.70413106 119.75092733 6.59460984 124.6901826 3.52065372 129.65428066 C2.84840763 130.73838223 2.17616154 131.82248379 1.48354435 132.93943691 C0.19049119 135.02811749 -1.09879041 137.11913936 -2.38364315 139.21287441 C-7.80315224 147.9624433 -12.26979309 154.79167856 -22.44419003 158.15428066 C-29.51281892 159.09482525 -36.75604218 158.73283189 -42.72934628 154.55662441 C-48.97468311 149.44864973 -52.52532822 144.55361018 -53.88559628 136.56053066 C-54.78267816 123.27608403 -44.89242961 111.98442007 -37.92954159 101.42381191 C-35.47502121 97.67344678 -33.08323596 93.88407589 -30.69419003 90.09178066 C-30.21006649 89.32390224 -29.72594296 88.55602383 -29.22714901 87.76487637 C-24.9325475 80.94436469 -20.65582126 74.11263302 -16.38169003 67.27928066 C-15.73812557 66.25052822 -15.09456112 65.22177578 -14.43149471 64.16184902 C-13.8259576 63.19255459 -13.22042049 62.22326015 -12.59653378 61.22459316 C-12.06020321 60.36623867 -11.52387264 59.50788418 -10.97128963 58.62351894 C-9.43961739 56.14688695 -7.94014978 53.65260122 -6.44419003 51.15428066 C-7.56425945 51.15507626 -8.68432888 51.15587185 -9.83833981 51.15669155 C-20.41666007 51.16030074 -30.99449554 51.13240202 -41.57266045 51.07400227 C-47.01050302 51.04498434 -52.44791566 51.02689872 -57.88584042 51.03416348 C-63.13814568 51.04077194 -68.3896025 51.01818489 -73.64173222 50.97572613 C-75.64105425 50.96462198 -77.64046261 50.96387036 -79.63979053 50.97385693 C-98.55676186 51.05620181 -98.55676186 51.05620181 -104.91930294 45.78639126 C-111.39734681 38.85283917 -113.95230963 32.7315215 -113.75278378 23.15428066 C-113.03005275 16.12823731 -109.35172879 11.36875501 -104.30747128 6.62693691 C-98.1991164 1.79915958 -91.10356576 1.04547042 -83.5450201 0.9489584 C-82.86580407 0.93907579 -82.18658804 0.92919319 -81.4867897 0.91901112 C-79.22913534 0.88741402 -76.9714607 0.86258636 -74.71372128 0.83787441 C-73.10669167 0.81694819 -71.49966656 0.79567485 -69.89264584 0.77407742 C-64.68073641 0.70600715 -59.46873648 0.64822596 -54.25669003 0.59178066 C-52.93192339 0.57715408 -52.93192339 0.57715408 -51.58039379 0.56223202 C-42.55628451 0.46260863 -33.5321365 0.3688643 -24.50787926 0.28368282 C-16.33827672 0.206482 -8.16916429 0.11451922 0 0 Z " fill="#F0137A" transform="translate(135.4441900253296,268.8457193374634)"/>
<path d="M0 0 C4.85426053 5.07490873 7.9875304 10.75928635 8.3125 17.875 C7.67084058 26.85637204 3.09592576 34.44212601 -1.75 41.8125 C-2.82314157 43.47771967 -3.8960517 45.1430885 -4.96875 46.80859375 C-5.78666016 48.06905518 -5.78666016 48.06905518 -6.62109375 49.35498047 C-9.19738767 53.34066779 -11.72190639 57.35864027 -14.25 61.375 C-15.24195494 62.94545941 -16.23414342 64.51577134 -17.2265625 66.0859375 C-19.30778634 69.38086918 -21.38539714 72.67804796 -23.4609375 75.9765625 C-23.99074219 76.81767578 -24.52054687 77.65878906 -25.06640625 78.52539062 C-26.06736445 80.11463127 -27.0674407 81.70442794 -28.06640625 83.29492188 C-30.96933813 87.90139501 -33.95604148 92.4360008 -37.03759766 96.92529297 C-38.4073097 98.9595514 -38.4073097 98.9595514 -39.25 101.875 C-38.15720734 101.86389694 -37.06441467 101.85279388 -35.93850708 101.84135437 C-25.61098137 101.73974243 -15.28355785 101.66492163 -4.95564461 101.61593914 C0.35335087 101.58990952 5.66194093 101.55463296 10.97070312 101.49780273 C16.09951861 101.44324603 21.22794556 101.41352961 26.35702896 101.40061378 C28.30816891 101.39141626 30.25928897 101.37345585 32.2102623 101.34634972 C52.59235637 101.07457841 52.59235637 101.07457841 59.75 106.875 C65.95581138 113.52394215 68.29692316 119.63905962 68.12890625 128.734375 C67.36417983 135.07293214 64.58690292 140.60213891 59.75 144.8125 C52.25630685 149.96441404 47.05782175 151.00884754 37.98046875 151.19140625 C36.61771568 151.22291779 36.61771568 151.22291779 35.22743225 151.25506592 C32.1308871 151.32294015 29.03428269 151.3815344 25.9375 151.4375 C24.85795044 151.45734955 23.77840088 151.4771991 22.6661377 151.49765015 C-0.21864006 151.90061497 -23.10775829 152.07523999 -45.99569702 152.16110229 C-49.9961504 152.17668606 -53.99638476 152.20153592 -57.99673462 152.23416138 C-62.77945648 152.27245217 -67.56185857 152.29061989 -72.34472847 152.29401398 C-74.12671532 152.2984768 -75.90869994 152.30976217 -77.69059563 152.32833099 C-80.15705756 152.35272647 -82.62232101 152.35184399 -85.08886719 152.3449707 C-85.80138043 152.35778359 -86.51389368 152.37059649 -87.24799824 152.38379765 C-93.47875252 152.3197877 -98.51710682 150.17836184 -103.23828125 146.19921875 C-108.49118312 139.70669402 -110.573598 134.18595684 -110.6484375 125.81640625 C-109.5038778 117.36686257 -104.9835746 111.03571102 -100.3125 104.125 C-95.3636353 96.68021729 -90.54809888 89.19660823 -86 81.5 C-81.51167665 73.92059824 -76.83172914 66.49944476 -72.015625 59.125 C-69.13581148 54.71337077 -66.31129559 50.26803268 -63.5 45.8125 C-63.01249268 45.04035156 -62.52498535 44.26820312 -62.02270508 43.47265625 C-59.13327171 38.88746316 -56.26250708 34.29100773 -53.40234375 29.6875 C-52.74395508 28.62926025 -52.08556641 27.57102051 -51.40722656 26.48071289 C-50.13189234 24.42939755 -48.85894803 22.37659362 -47.58886719 20.32202148 C-34.49827659 -0.73218968 -34.49827659 -0.73218968 -24.3125 -5.5 C-14.69895363 -7.46194824 -8.10779391 -5.30124986 0 0 Z " fill="#6457A4" transform="translate(410.25,82.125)"/>
<path d="M0 0 C11.22729081 5.30237252 16.70700657 17.35436318 22.04296875 27.90234375 C26.20326371 36.00780253 30.51813938 43.99468503 35.04296875 51.90234375 C41.13320552 62.55292488 46.87100558 73.36692937 52.48046875 84.27734375 C58.66654128 72.95448616 64.83920054 61.62457208 70.98046875 50.27734375 C72.0650782 48.2760276 73.14971365 46.27472553 74.234375 44.2734375 C76.41540299 40.24828829 78.58866675 36.21906326 80.7578125 32.1875 C81.81106773 30.2382109 82.86444819 28.28898946 83.91796875 26.33984375 C84.38976562 25.45876953 84.8615625 24.57769531 85.34765625 23.66992188 C96.41820136 3.23802347 96.41820136 3.23802347 106.48046875 -0.72265625 C115.44941402 -1.79576683 123.0599367 -1.09760437 130.48046875 4.27734375 C132.60247396 6.18919869 133.84979503 7.85604034 135.48046875 10.27734375 C136.07859375 11.12296875 136.67671875 11.96859375 137.29296875 12.83984375 C139.99648434 20.66580995 139.35438557 28.18545307 135.84741211 35.57006836 C132.82455828 41.55692781 129.7022339 47.486739 126.54296875 53.40234375 C126.16741852 54.1080954 125.79186829 54.81384705 125.40493774 55.54098511 C120.11302313 65.48304296 114.68064487 75.33142377 109.08422852 85.10595703 C104.85991667 92.51584801 100.91506414 100.05081767 97.00976562 107.63256836 C92.86430037 115.63942223 88.47924416 123.49514377 83.99755859 131.31811523 C81.06748521 136.43617262 78.27361347 141.58115136 75.60546875 146.83984375 C71.88601261 153.74220857 68.12813995 157.5879099 60.66796875 160.15234375 C52.38742982 162.23502475 46.08710785 162.2635193 38.5859375 157.95703125 C32.08766753 152.77288267 28.77371899 145.63198238 24.98046875 138.40234375 C24.04891507 136.64930788 23.11735023 134.89627775 22.18492126 133.14370728 C21.23219881 131.35137475 20.28226236 129.5575847 19.33251953 127.76367188 C16.55903469 122.54282247 13.73980295 117.34717208 10.91796875 112.15234375 C9.84490507 110.17325679 8.77198848 108.19409007 7.69921875 106.21484375 C7.16941406 105.23773438 6.63960937 104.260625 6.09375 103.25390625 C4.46105524 100.24152511 2.82990149 97.22831447 1.19921875 94.21484375 C-4.04754465 84.51987308 -9.30235896 74.82943867 -14.58203125 65.15234375 C-15.06526855 64.26619385 -15.54850586 63.38004395 -16.04638672 62.46704102 C-18.65815779 57.67995446 -21.27678382 52.89672621 -23.90234375 48.1171875 C-24.455271 47.10865723 -25.00819824 46.10012695 -25.57788086 45.06103516 C-26.64175107 43.12078333 -27.7075829 41.18160544 -28.77563477 39.24365234 C-29.25186279 38.37434082 -29.72809082 37.5050293 -30.21875 36.609375 C-30.63987061 35.84343018 -31.06099121 35.07748535 -31.49487305 34.28833008 C-34.59982072 28.1945836 -34.62000694 20.96445154 -32.68359375 14.4765625 C-29.92079919 8.36689264 -26.26698337 4.65954221 -20.51953125 1.27734375 C-19.61654297 0.71660156 -19.61654297 0.71660156 -18.6953125 0.14453125 C-13.15400883 -2.06403143 -5.6637583 -1.62448882 0 0 Z " fill="#FDB713" transform="translate(197.51953125,29.72265625)"/>
<path d="M0 0 C8.81056085 5.0702682 13.34065618 14.95044561 17.80053711 23.65527344 C18.45258594 24.90374491 19.1060929 26.15145583 19.76098633 27.3984375 C21.07721359 29.90602821 22.38836518 32.41616513 23.69604492 34.92822266 C26.29629209 39.89114834 28.97843735 44.8070078 31.67553711 49.71777344 C32.6472813 51.49360173 33.61863468 53.26964394 34.58959961 55.04589844 C35.07203125 55.92826172 35.55446289 56.810625 36.05151367 57.71972656 C38.72964887 62.62935032 41.38933222 67.54895871 44.05053711 72.46777344 C48.24826405 80.22357368 52.4536836 87.97507673 56.67553711 95.71777344 C57.16127197 96.60891846 57.64700684 97.50006348 58.14746094 98.41821289 C60.65529938 103.01375248 63.17497667 107.60239594 65.71069336 112.18261719 C66.21906738 113.10204102 66.72744141 114.02146484 67.2512207 114.96875 C68.21934304 116.71804692 69.18961219 118.466158 70.16235352 120.21289062 C70.80889893 121.38126465 70.80889893 121.38126465 71.46850586 122.57324219 C71.84773193 123.25539795 72.22695801 123.93755371 72.61767578 124.64038086 C75.68113171 130.64141923 75.59277963 138.41165765 73.93725586 144.85449219 C71.02500487 151.38460565 65.36694196 155.59017021 59.55053711 159.46777344 C56.42553711 160.09277344 56.42553711 160.09277344 52.55053711 160.46777344 C51.85573242 160.55671875 51.16092773 160.64566406 50.44506836 160.73730469 C43.68342802 161.2519074 38.66152818 158.82308539 33.55053711 154.46777344 C28.21618509 148.46662741 24.63423342 141.40845227 20.92553711 134.34277344 C19.68650468 132.01175136 18.44691229 129.68102685 17.20678711 127.35058594 C16.5919043 126.19075195 15.97702148 125.03091797 15.34350586 123.8359375 C12.73933436 118.94389638 10.08646656 114.07911239 7.42553711 109.21777344 C6.45800896 107.44828606 5.49056108 105.67875478 4.52319336 103.90917969 C4.04253418 103.0302002 3.561875 102.1512207 3.06665039 101.24560547 C1.43050808 98.24785552 -0.19942438 95.24678388 -1.82836914 92.24511719 C-2.38186035 91.22643555 -2.93535156 90.20775391 -3.50561523 89.15820312 C-4.57368661 87.1921334 -5.64046871 85.2253626 -6.70581055 83.2578125 C-7.42003174 81.94441895 -7.42003174 81.94441895 -8.14868164 80.60449219 C-8.56980225 79.82807373 -8.99092285 79.05165527 -9.42480469 78.25170898 C-10.3244072 76.50583832 -10.3244072 76.50583832 -11.44946289 75.46777344 C-11.84101563 76.2007666 -12.23256836 76.93375977 -12.63598633 77.68896484 C-20.65566602 92.69601869 -28.67697249 107.70156233 -36.88549805 122.60644531 C-38.61700198 125.77429204 -40.319793 128.95687007 -42.02368164 132.13964844 C-43.24833007 134.39518916 -44.47357962 136.65040362 -45.69946289 138.90527344 C-46.53102905 140.4786145 -46.53102905 140.4786145 -47.37939453 142.08374023 C-51.87666331 150.28354492 -57.22905687 157.13922009 -66.45336914 160.03417969 C-74.05422868 161.68524702 -81.13484116 160.21691295 -87.65649414 156.06152344 C-93.86219417 151.17985959 -96.26863852 145.73675491 -97.96508789 138.16699219 C-98.54453032 132.42085477 -96.52156177 128.09580065 -93.91430664 123.10449219 C-93.55664719 122.40542252 -93.19898773 121.70635284 -92.83049011 120.98609924 C-91.7125645 118.80848492 -90.58264093 116.63748426 -89.44946289 114.46777344 C-89.10719666 113.80886108 -88.76493042 113.14994873 -88.41229248 112.47106934 C-86.05448139 107.93541742 -83.66412346 103.41756397 -81.26196289 98.90527344 C-80.89640289 98.2170047 -80.5308429 97.52873596 -80.15420532 96.8196106 C-74.9376536 87.00459673 -69.57509069 77.28758009 -64.05444336 67.63964844 C-59.8182058 60.20532367 -55.84128118 52.65375742 -51.9128418 45.05322266 C-48.35213838 38.17171719 -44.71595008 31.335754 -41.01196289 24.53027344 C-40.52783936 23.63687256 -40.04371582 22.74347168 -39.54492188 21.82299805 C-30.97243208 6.1313618 -19.92139092 -9.13649554 0 0 Z " fill="#62C2AC" transform="translate(261.449462890625,314.5322265625)"/>
<path d="M0 0 C5.1445246 4.37049698 8.71441743 9.25230312 12.0625 15.0625 C13.01096271 16.66007784 13.96158586 18.25637451 14.9140625 19.8515625 C15.41196289 20.68848633 15.90986328 21.52541016 16.42285156 22.38769531 C19.18051318 26.95533917 22.06143488 31.44382073 24.9375 35.9375 C26.13162018 37.80722157 27.32563103 39.67701297 28.51953125 41.546875 C29.39472412 42.91682617 29.39472412 42.91682617 30.28759766 44.31445312 C34.39730302 50.75967112 38.46773332 57.22980688 42.54541016 63.6953125 C43.99081789 65.98545164 45.43840684 68.27419657 46.88671875 70.5625 C53.1798005 80.50854129 59.43458619 90.47787944 65.66137695 100.46557617 C66.25394287 101.41537354 66.84650879 102.3651709 67.45703125 103.34375 C68.03662598 104.27316406 68.6162207 105.20257813 69.21337891 106.16015625 C71.6486177 110.03098128 74.13241885 113.87016884 76.6237793 117.70507812 C80.28787321 123.81515136 79.72527649 131.13451864 79 138 C76.43416412 144.73176867 71.08646734 149.36628815 65 153 C62.11926951 153.9602435 60.32092154 154.12654653 57.3293457 154.12939453 C55.8806459 154.13401703 55.8806459 154.13401703 54.40267944 154.13873291 C52.80536484 154.13580231 52.80536484 154.13580231 51.17578125 154.1328125 C50.04258453 154.13440369 48.90938782 154.13599487 47.74185181 154.13763428 C43.93203009 154.14025449 40.12231173 154.13387568 36.3125 154.125 C35.00064728 154.12211975 33.68879456 154.1192395 32.33718872 154.11627197 C26.65150057 154.10242413 20.96584291 154.08431056 15.28019714 154.05819702 C7.00867905 154.02021502 -1.26256657 153.99552075 -9.53417969 153.99414062 C-17.69427982 153.99228226 -25.8539746 153.9665894 -34.0139246 153.91650963 C-38.46900028 153.88975742 -42.92359293 153.87290011 -47.37875366 153.88043213 C-51.61561019 153.88701915 -55.85139894 153.86467407 -60.08803177 153.82157135 C-61.64964591 153.81051466 -63.21137046 153.80945775 -64.77299118 153.81954193 C-74.6213142 153.87554304 -82.72801789 152.79854087 -91 147 C-96.24977268 141.60840473 -99.26460248 135.93016135 -99.4375 128.3125 C-99.30419505 121.93738683 -97.81079131 117.13588661 -94 112 C-91.52194155 109.63480361 -88.94916322 107.73549168 -86 106 C-85.4811322 105.65083527 -84.9622644 105.30167053 -84.42767334 104.94192505 C-80.75162116 103.51563529 -77.07890133 103.73954216 -73.19238281 103.77294922 C-72.30422379 103.77265717 -71.41606476 103.77236511 -70.50099182 103.77206421 C-67.56826982 103.77345643 -64.63580256 103.78901263 -61.703125 103.8046875 C-59.66860086 103.80841801 -57.63407492 103.8112648 -55.59954834 103.81326294 C-50.24671461 103.82089638 -44.89398955 103.84054245 -39.54119873 103.8626709 C-34.07826202 103.88313551 -28.61530775 103.89226598 -23.15234375 103.90234375 C-12.43484811 103.92378856 -1.71743309 103.95792108 9 104 C8.57473526 103.35072037 8.14947052 102.70144073 7.71131897 102.03248596 C5.75543548 99.04466048 3.80153496 96.05554309 1.84765625 93.06640625 C0.84442322 91.53481873 0.84442322 91.53481873 -0.17907715 89.97229004 C-4.06982441 84.01662768 -7.88458898 78.02694129 -11.5625 71.9375 C-12.01574142 71.18775909 -12.46898285 70.43801819 -12.93595886 69.66555786 C-13.54773735 68.65354813 -13.54773735 68.65354813 -14.171875 67.62109375 C-18.02793734 61.27639666 -22.04508655 55.03312387 -26.05493164 48.78491211 C-40.69237237 25.92757719 -40.69237237 25.92757719 -39 16 C-36.20342062 8.01124198 -32.52730374 2.07538869 -25 -2 C-16.75427448 -5.85970131 -7.67379835 -4.68172101 0 0 Z " fill="#62C2AC" transform="translate(121,80)"/>
<path d="M0 0 C15.28173021 -0.07540518 30.56284873 -0.06492506 45.84464264 -0.0079422 C47.318412 -0.00251156 48.79218221 0.00269126 50.26595306 0.00769806 C60.2294592 0.04169323 70.19254535 0.09473452 80.15570927 0.18551159 C84.36144098 0.22364277 88.5669757 0.25536077 92.77285767 0.27072144 C96.79429518 0.28583332 100.81514635 0.3202048 104.83632088 0.36824608 C106.32528708 0.38290541 107.81433523 0.391035 109.30337334 0.39190102 C119.45420997 0.40364351 130.07208106 0.94979732 138.5 7.3125 C144.6197285 13.89120813 146.39889177 20.28929854 146.26953125 29.12109375 C145.55285887 36.77598571 142.02154212 41.60223003 136.29296875 46.4921875 C129.65020197 50.86034419 124.28774483 51.42750914 116.49609375 51.328125 C115.47604248 51.32729416 114.45599121 51.32646332 113.4050293 51.3256073 C110.08215785 51.3178986 106.76017154 51.28666409 103.4375 51.25 C102.30539093 51.23913361 101.17328186 51.22826721 100.00686646 51.21707153 C95.37181139 51.17252297 90.73681258 51.12778176 86.10191345 51.06898499 C79.80810583 50.99754503 73.5336551 51.02500944 67.24229431 51.21511841 C63.77713697 51.31462386 60.3125679 51.35840823 56.84622192 51.3927002 C55.25833934 51.42223321 53.67069748 51.47740313 52.08468628 51.55993652 C40.44541157 52.14626972 40.44541157 52.14626972 36.4425354 48.63305664 C33.39223569 45.06123053 31.15802575 41.07714749 29.00558472 36.91958618 C27.61996078 34.27453349 26.02678218 31.77687632 24.42578125 29.2578125 C22.85883761 26.68423799 21.30082342 24.10558276 19.74804688 21.5234375 C12.1139726 8.82796295 12.1139726 8.82796295 0 1 C0 0.67 0 0.34 0 0 Z " fill="#FDB715" transform="translate(332,269)"/>
<path d="M0 0 C5.8008871 3.79288772 8.78166481 8.53378892 11 15 C12.93460636 25.85061831 7.25626237 35.18255645 1.5 43.9375 C0.42685843 45.60271967 -0.6460517 47.2680885 -1.71875 48.93359375 C-2.53666016 50.19405518 -2.53666016 50.19405518 -3.37109375 51.47998047 C-5.94738767 55.46566779 -8.47190639 59.48364027 -11 63.5 C-11.99195494 65.07045941 -12.98414342 66.64077134 -13.9765625 68.2109375 C-16.05778634 71.50586918 -18.13539714 74.80304796 -20.2109375 78.1015625 C-20.74074219 78.94267578 -21.27054687 79.78378906 -21.81640625 80.65039062 C-22.81736445 82.23963127 -23.8174407 83.82942794 -24.81640625 85.41992188 C-27.71933813 90.02639501 -30.70604148 94.5610008 -33.78759766 99.05029297 C-35.1573097 101.0845514 -35.1573097 101.0845514 -36 104 C-28.08 104 -20.16 104 -12 104 C-12 104.33 -12 104.66 -12 105 C-12.91962021 105.00364563 -13.83924042 105.00729126 -14.78672791 105.01104736 C-23.48137925 105.04901806 -32.17565896 105.10597357 -40.87004757 105.18390274 C-45.33924194 105.22330067 -49.80824155 105.25552662 -54.27758789 105.27099609 C-58.59613506 105.2862136 -62.91414651 105.32074853 -67.2324543 105.36830902 C-68.87450041 105.38307055 -70.51662303 105.391038 -72.15873528 105.39188385 C-80.80448982 105.40081084 -88.36459636 105.42802946 -96 110 C-97.3295538 110.67417277 -98.66193841 111.3428749 -100 112 C-95.82311672 103.84009722 -90.98750323 96.22921656 -85.9765625 88.56640625 C-83.02406888 84.05065716 -80.12779 79.50114156 -77.25 74.9375 C-76.75935059 74.15955078 -76.26870117 73.38160156 -75.76318359 72.58007812 C-71.65945263 66.06339005 -67.57927383 59.53201487 -63.5 53 C-57.50485146 43.40015427 -51.49931057 33.80763699 -45.42626953 24.25683594 C-43.95699265 21.93194797 -42.50713884 19.59566339 -41.05859375 17.2578125 C-40.10192822 15.73414531 -39.1449109 14.21069894 -38.1875 12.6875 C-37.76758789 11.99986572 -37.34767578 11.31223145 -36.91503906 10.60375977 C-28.23949851 -3.08042782 -14.54139972 -8.32900589 0 0 Z " fill="#63C2AC" transform="translate(407,80)"/>
<path d="M0 0 C11.22729081 5.30237252 16.70700657 17.35436318 22.04296875 27.90234375 C26.20330832 36.00788946 30.51978769 43.99368947 35.04296875 51.90234375 C39.39480352 59.54674982 43.69854909 67.21236738 47.85546875 74.96484375 C48.33830322 75.84414551 48.8211377 76.72344727 49.31860352 77.62939453 C49.75100342 78.44520996 50.18340332 79.26102539 50.62890625 80.1015625 C51.01224121 80.81401123 51.39557617 81.52645996 51.79052734 82.26049805 C52.64305379 84.75261445 52.25391898 85.78946539 51.48046875 88.27734375 C50.2114243 90.85924876 48.90904276 93.39562371 47.55078125 95.9296875 C47.15978241 96.66683487 46.76878357 97.40398224 46.36593628 98.16346741 C45.53912686 99.7203324 44.71022984 101.27609028 43.87939453 102.83081055 C42.61306671 105.20062487 41.35284348 107.57360112 40.09375 109.94726562 C39.28811623 111.46242883 38.48213789 112.97740888 37.67578125 114.4921875 C37.30067413 115.19754135 36.92556702 115.9028952 36.53909302 116.62962341 C34.60843522 120.23983527 32.5906181 123.76793808 30.48046875 127.27734375 C29.13013883 130.95024112 29.38206921 134.65019292 29.41796875 138.52734375 C29.42699219 139.790625 29.43601563 141.05390625 29.4453125 142.35546875 C29.45691406 143.3196875 29.46851563 144.28390625 29.48046875 145.27734375 C26.92130645 142.07415064 25.02103558 138.72067523 23.109375 135.09765625 C22.79115784 134.49731567 22.47294067 133.8969751 22.14508057 133.27844238 C21.4629231 131.99085518 20.78225204 130.70247957 20.10293579 129.41339111 C18.30365351 125.99966054 16.49297019 122.5919816 14.68359375 119.18359375 C14.32235916 118.50245514 13.96112457 117.82131653 13.58894348 117.11953735 C10.53085973 111.35817683 7.42590568 105.62335902 4.29296875 99.90234375 C3.32942708 98.14192708 2.36588542 96.38151042 1.40234375 94.62109375 C0.92603516 93.75097656 0.44972656 92.88085938 -0.04101562 91.984375 C-3.23682899 86.13312358 -6.40690402 80.26788599 -9.57910156 74.40380859 C-12.38614855 69.21489721 -15.19782879 64.02861548 -18.01953125 58.84765625 C-18.59517822 57.7891748 -19.1708252 56.73069336 -19.76391602 55.64013672 C-20.85134728 53.64089394 -21.94025175 51.64245136 -23.03100586 49.64501953 C-24.54243668 46.86363628 -26.03557781 44.07347777 -27.51953125 41.27734375 C-28.3547229 39.7162085 -28.3547229 39.7162085 -29.20678711 38.12353516 C-30.02288452 36.55611572 -30.02288452 36.55611572 -30.85546875 34.95703125 C-31.34966309 34.01585449 -31.84385742 33.07467773 -32.35302734 32.10498047 C-34.77820874 26.22627578 -34.52177132 20.51746234 -32.6640625 14.51171875 C-29.96712249 8.36306371 -26.2653617 4.65858791 -20.51953125 1.27734375 C-19.61654297 0.71660156 -19.61654297 0.71660156 -18.6953125 0.14453125 C-13.15400883 -2.06403143 -5.6637583 -1.62448882 0 0 Z " fill="#F0137A" transform="translate(197.51953125,29.72265625)"/>
<path d="M0 0 C5.1445246 4.37049698 8.71441743 9.25230312 12.0625 15.0625 C13.01096271 16.66007784 13.96158586 18.25637451 14.9140625 19.8515625 C15.66091309 21.10694824 15.66091309 21.10694824 16.42285156 22.38769531 C19.18051318 26.95533917 22.06143488 31.44382073 24.9375 35.9375 C26.13162018 37.80722157 27.32563103 39.67701297 28.51953125 41.546875 C29.39472412 42.91682617 29.39472412 42.91682617 30.28759766 44.31445312 C34.39730302 50.75967112 38.46773332 57.22980688 42.54541016 63.6953125 C44.47632818 66.75470594 46.41137649 69.81147832 48.34619141 72.8684082 C49.81782701 75.19592512 51.28616446 77.52549476 52.75390625 79.85546875 C55.18809842 83.7193753 57.63756123 87.57333371 60.08984375 91.42578125 C61.47682531 93.61702117 62.86354715 95.80842551 64.25 98 C64.91878174 99.04567139 65.58756348 100.09134277 66.27661133 101.16870117 C66.89173584 102.14427979 67.50686035 103.1198584 68.140625 104.125 C68.69266602 104.99382812 69.24470703 105.86265625 69.81347656 106.7578125 C71 109 71 109 71 112 C70.20335937 111.47599609 70.20335937 111.47599609 69.390625 110.94140625 C68.68421875 110.48636719 67.9778125 110.03132813 67.25 109.5625 C66.55390625 109.11003906 65.8578125 108.65757812 65.140625 108.19140625 C61.49766652 106.16384724 58.28592749 105.88159214 54.15893555 105.95336914 C53.20081467 105.96570084 52.24269379 105.97803253 51.25553894 105.99073792 C49.71172295 106.01272499 49.71172295 106.01272499 48.13671875 106.03515625 C45.94857359 106.04118585 43.76041901 106.04435141 41.57226562 106.04492188 C38.12797729 106.0466407 34.68714061 106.0625067 31.2434082 106.12670898 C27.91458916 106.18422174 24.59088205 106.17784244 21.26171875 106.16015625 C20.23858078 106.19303238 19.21544281 106.22590851 18.16130066 106.25978088 C13.76202672 106.18686221 11.08218112 106.07157295 7.87055969 102.89143372 C6.05935152 100.33388911 4.50211913 97.74859824 3 95 C2.34620361 93.99783447 1.69240723 92.99566895 1.01879883 91.96313477 C0.50341553 91.13096436 -0.01196777 90.29879395 -0.54296875 89.44140625 C-1.43181763 88.01187622 -1.43181763 88.01187622 -2.33862305 86.5534668 C-2.94875244 85.56644775 -3.55888184 84.57942871 -4.1875 83.5625 C-5.51004793 81.4346666 -6.83296903 79.30706511 -8.15625 77.1796875 C-8.8059375 76.13393555 -9.455625 75.08818359 -10.125 74.01074219 C-12.79421134 69.72471168 -15.48830872 65.45468996 -18.1875 61.1875 C-18.66396973 60.43178711 -19.14043945 59.67607422 -19.63134766 58.89746094 C-22.16760268 54.87835304 -24.72402726 50.87357081 -27.3046875 46.8828125 C-27.84971924 46.03436768 -28.39475098 45.18592285 -28.95629883 44.31176758 C-29.99159829 42.70082966 -31.03267886 41.09358526 -32.08081055 39.4909668 C-36.70470823 32.27311724 -40.66269408 24.78067367 -39 16 C-36.18599172 8.01151496 -32.53569742 2.07993315 -25 -2 C-16.75427448 -5.85970131 -7.67379835 -4.68172101 0 0 Z " fill="#6558A4" transform="translate(121,80)"/>
<path d="M0 0 C-1.90914424 1.27276283 -3.84497749 2.5069865 -5.8125 3.6875 C-13.25421445 9.08639088 -17.63941954 16.89086552 -22.375 24.625 C-22.99632812 25.62917969 -23.61765625 26.63335937 -24.2578125 27.66796875 C-24.88171875 28.67730469 -25.505625 29.68664062 -26.1484375 30.7265625 C-26.76229813 31.68452225 -27.37615875 32.64248199 -28.00862122 33.62947083 C-30.06455801 36.9241205 -30.06455801 36.9241205 -31.39457703 40.40434265 C-33.12595956 44.20764787 -34.66536479 47.39627628 -38 50 C-44.52852293 52.42016524 -51.97018659 51.65607479 -58.80859375 51.48046875 C-60.86066661 51.47143917 -62.91276635 51.46731119 -64.96485901 51.46784973 C-69.25906832 51.4554507 -73.54973541 51.39980526 -77.84301758 51.31030273 C-83.32894595 51.19713106 -88.81125637 51.16701992 -94.29823208 51.16634655 C-98.534069 51.1608118 -102.76913572 51.12348739 -107.00468636 51.07546425 C-109.02630594 51.05395294 -111.04801081 51.03927544 -113.06973076 51.03172874 C-132.08345621 50.91194517 -132.08345621 50.91194517 -138.48060608 45.62373352 C-144.96030616 38.69906041 -147.50794225 32.56872803 -147.30859375 23 C-146.58586273 15.97395664 -142.90753877 11.21447434 -137.86328125 6.47265625 C-131.68898537 1.59276202 -124.52826486 0.8891083 -116.89453125 0.79467773 C-116.19475631 0.78478097 -115.49498137 0.7748842 -114.77400112 0.76468754 C-112.45353476 0.73309364 -110.13304958 0.70825754 -107.8125 0.68359375 C-106.1691088 0.66290036 -104.52572198 0.64185648 -102.88233948 0.6204834 C-98.49329882 0.56480229 -94.10420891 0.51539773 -89.71507645 0.46757126 C-87.00655544 0.43757261 -84.29806187 0.40576308 -81.58956909 0.37332153 C-54.39264836 0.04817279 -27.19901319 -0.15001577 0 0 Z " fill="#FDB714" transform="translate(169,269)"/>
<path d="M0 0 C0.33 0 0.66 0 1 0 C1.0812915 0.66717041 1.16258301 1.33434082 1.24633789 2.02172852 C2.35799132 9.52916024 4.78548774 15.33065692 8.4375 21.9375 C9.22471436 23.41271118 9.22471436 23.41271118 10.02783203 24.91772461 C12.70284052 29.90485904 15.46673409 34.83276659 18.30859375 39.7265625 C18.82429932 40.62640869 19.34000488 41.52625488 19.87133789 42.45336914 C20.85279327 44.15637509 21.8525866 45.84898043 22.87280273 47.52905273 C26.10435433 53.12840421 26.10435433 53.12840421 25.65625 56.87109375 C25.1096875 57.90363281 24.563125 58.93617188 24 60 C23.60119629 60.77738525 23.20239258 61.55477051 22.79150391 62.35571289 C21.27890241 65.26216225 19.70786789 68.13123798 18.125 71 C17.54419678 72.06162354 16.96339355 73.12324707 16.36499023 74.21704102 C15.16203212 76.41541554 13.95718513 78.61275749 12.75048828 80.80908203 C10.65715152 84.62496926 8.58229353 88.45067685 6.50830078 92.27709961 C4.54898781 95.88240752 2.57179498 99.47781907 0.59619141 103.07421875 C-1.14707573 106.26958634 -2.86403116 109.47848352 -4.58203125 112.6875 C-5.80405256 114.93784491 -7.02669715 117.18785148 -8.25 119.4375 C-8.80421631 120.48607178 -9.35843262 121.53464355 -9.92944336 122.61499023 C-14.42679913 130.8151889 -19.77916985 137.67131354 -29.00390625 140.56640625 C-36.60476579 142.21747359 -43.68537827 140.74913951 -50.20703125 136.59375 C-56.41273128 131.71208616 -58.81917563 126.26898147 -60.515625 118.69921875 C-61.09506743 112.95308134 -59.07209888 108.62802721 -56.46484375 103.63671875 C-56.1071843 102.93764908 -55.74952484 102.23857941 -55.38102722 101.51832581 C-54.26310161 99.34071149 -53.13317804 97.16971082 -52 95 C-51.65773376 94.34108765 -51.31546753 93.68217529 -50.96282959 93.0032959 C-48.6050185 88.46764398 -46.21466057 83.94979053 -43.8125 79.4375 C-43.44694 78.74923126 -43.08138 78.06096252 -42.70474243 77.35183716 C-37.49006506 67.5403499 -32.13306082 57.82453012 -26.609375 48.18286133 C-22.84295972 41.57921394 -19.29261492 34.88340325 -15.8125 28.125 C-12.14219369 21.00341983 -8.36861454 13.97269912 -4.3125 7.0625 C-3.89009033 6.3401416 -3.46768066 5.6177832 -3.0324707 4.87353516 C-2.05352094 3.22961911 -1.03169037 1.61134031 0 0 Z " fill="#6458A4" transform="translate(224,334)"/>
</svg>
